<?xml version="1.0" standalone="no"?>
<!DOCTYPE svg PUBLIC "-//W3C//DTD SVG 20010904//EN"
 "http://www.w3.org/TR/2001/REC-SVG-20010904/DTD/svg10.dtd">
<svg version="1.0" xmlns="http://www.w3.org/2000/svg"
 width="500.000000pt" height="500.000000pt" viewBox="0 0 500.000000 500.000000"
 preserveAspectRatio="xMidYMid meet">
<metadata>
Created by potrace 1.14, written by Peter Selinger 2001-2017
</metadata>
<g transform="translate(0.000000,500.000000) scale(0.100000,-0.100000)"
fill="#000000" stroke="none">
<path d="M2189 4764 c-414 -56 -817 -224 -1138 -472 -110 -85 -329 -304 -407
-407 -356 -469 -535 -1074 -485 -1635 103 -1143 983 -2029 2125 -2139 522 -51
1060 88 1510 389 244 164 457 379 629 635 617 922 497 2171 -286 2956 -177
177 -358 308 -587 424 -294 148 -501 212 -808 251 -141 17 -421 17 -553 -2z
m682 -197 c871 -168 1552 -836 1728 -1693 56 -276 61 -518 15 -794 -80 -480
-334 -939 -697 -1262 -320 -284 -699 -459 -1130 -522 -141 -21 -437 -21 -583
-1 -374 53 -726 199 -1029 429 -118 89 -331 305 -422 429 -213 288 -358 644
-407 997 -30 217 -19 525 28 745 101 477 379 930 756 1232 271 218 607 374
940 437 164 31 207 35 435 32 200 -3 248 -6 366 -29z"/>
<path d="M2380 3592 c-34 -27 -39 -111 -12 -199 23 -75 46 -113 67 -113 19 0
53 76 71 159 17 82 7 143 -26 161 -29 16 -75 12 -100 -8z"/>
<path d="M2765 3512 c-63 -39 -109 -192 -103 -344 2 -48 8 -92 14 -98 45 -45
246 198 268 322 10 57 -13 101 -63 121 -53 22 -79 21 -116 -1z"/>
<path d="M2021 3479 c-112 -24 -130 -128 -48 -269 39 -66 166 -200 190 -200
30 0 39 47 34 165 -6 129 -34 228 -78 273 -34 35 -52 41 -98 31z"/>
<path d="M3168 3344 c-37 -20 -87 -94 -114 -172 -22 -64 -22 -92 0 -92 23 0
119 51 162 87 87 71 98 144 27 181 -28 15 -42 15 -75 -4z"/>
<path d="M1604 3285 c-12 -8 -27 -27 -33 -44 -10 -24 -10 -34 3 -59 31 -59
167 -152 223 -152 19 0 23 5 23 29 0 43 -65 164 -110 205 -43 39 -73 45 -106
21z"/>
<path d="M2378 3190 c-16 -12 -28 -34 -31 -57 -12 -74 47 -258 81 -251 33 6
82 145 82 234 0 82 -71 122 -132 74z"/>
<path d="M2870 3008 c-43 -29 -112 -159 -114 -214 -1 -36 1 -39 24 -35 65 9
186 97 214 156 15 32 15 37 1 65 -15 29 -49 50 -79 50 -7 0 -28 -10 -46 -22z"/>
<path d="M3315 2976 c-93 -45 -224 -171 -248 -238 -11 -30 28 -41 122 -35 114
7 234 45 289 93 36 31 42 41 42 75 0 114 -90 160 -205 105z"/>
<path d="M1886 2949 c-14 -17 -26 -35 -26 -40 0 -26 31 -78 63 -106 38 -33
154 -93 181 -93 27 0 19 51 -20 129 -68 137 -141 178 -198 110z"/>
<path d="M1395 2866 c-13 -13 -29 -42 -35 -65 -9 -36 -8 -48 7 -79 34 -70 168
-110 328 -99 94 7 135 20 135 44 0 24 -84 102 -158 147 -126 76 -232 96 -277
52z"/>
<path d="M3452 2515 c-56 -16 -107 -39 -116 -53 -8 -14 36 -50 80 -66 130 -46
221 -41 243 13 15 34 6 73 -20 97 -26 24 -119 28 -187 9z"/>
<path d="M3017 2500 c-31 -10 -69 -25 -83 -35 -21 -13 -23 -19 -13 -31 48 -58
243 -96 297 -58 17 11 22 25 22 57 0 23 -4 47 -8 53 -25 38 -121 44 -215 14z"/>
<path d="M1704 2456 c-44 -20 -56 -59 -32 -111 26 -58 137 -54 253 8 73 39 79
58 28 80 -90 39 -191 48 -249 23z"/>
<path d="M1324 2444 c-54 -12 -77 -93 -39 -134 39 -43 142 -32 255 25 56 28
66 40 50 60 -27 32 -199 64 -266 49z"/>
<path d="M3152 2223 c-40 -5 -48 -22 -28 -60 19 -36 107 -121 169 -163 53 -35
142 -70 180 -70 51 0 97 60 97 128 0 70 -55 115 -176 145 -64 16 -190 26 -242
20z"/>
<path d="M1620 2129 c-68 -13 -168 -58 -190 -87 -50 -62 -6 -171 75 -186 71
-14 220 67 314 170 82 90 66 115 -71 113 -46 -1 -103 -5 -128 -10z"/>
<path d="M2796 2112 c-18 -29 67 -174 132 -224 46 -36 76 -35 114 2 25 26 29
36 24 63 -9 45 -57 90 -135 126 -77 35 -126 47 -135 33z"/>
<path d="M2067 2056 c-71 -30 -143 -88 -165 -132 -15 -32 -15 -36 5 -62 66
-89 149 -48 224 113 48 103 34 121 -64 81z"/>
<path d="M2449 1928 c-9 -21 -14 -72 -14 -141 0 -108 0 -109 29 -134 34 -29
77 -26 110 7 41 41 11 174 -60 267 -32 42 -48 42 -65 1z"/>
<path d="M3125 1813 c19 -82 104 -195 163 -220 32 -13 37 -13 61 5 14 10 32
31 39 45 17 34 -3 85 -46 115 -52 38 -156 82 -191 82 -31 0 -33 -2 -26 -27z"/>
<path d="M2759 1798 c-26 -49 6 -248 56 -348 43 -84 91 -110 156 -83 115 46
104 165 -29 320 -53 62 -141 133 -163 133 -5 0 -14 -10 -20 -22z"/>
<path d="M1795 1782 c-96 -41 -169 -101 -181 -148 -15 -58 49 -112 107 -92 57
20 147 153 152 224 3 36 -20 41 -78 16z"/>
<path d="M2188 1750 c-21 -23 -59 -84 -85 -137 -40 -83 -47 -107 -51 -172 -4
-72 -3 -77 22 -100 19 -18 41 -26 81 -29 51 -4 56 -3 89 30 45 45 61 119 53
253 -7 111 -30 195 -54 195 -9 0 -33 -18 -55 -40z"/>
<path d="M2525 1547 c-22 -33 -38 -141 -30 -201 13 -99 50 -131 118 -102 41
17 52 44 45 110 -6 51 -60 165 -93 196 l-23 22 -17 -25z"/>
</g>
</svg>
