<?xml version="1.0" standalone="no"?>
<!DOCTYPE svg PUBLIC "-//W3C//DTD SVG 20010904//EN"
 "http://www.w3.org/TR/2001/REC-SVG-20010904/DTD/svg10.dtd">
<svg version="1.0" xmlns="http://www.w3.org/2000/svg"
 width="1122.000000pt" height="1122.000000pt" viewBox="0 0 1122.000000 1122.000000"
 preserveAspectRatio="xMidYMid meet">
<metadata>
Created by potrace 1.14, written by Peter Selinger 2001-2017
</metadata>
<g transform="translate(0.000000,1122.000000) scale(0.100000,-0.100000)"
fill="#000000" stroke="none">
<path d="M5225 11214 c-1214 -94 -2287 -526 -3220 -1300 -167 -139 -560 -532
-699 -699 -652 -786 -1065 -1678 -1231 -2657 -61 -359 -69 -479 -69 -948 0
-469 8 -589 69 -948 166 -979 579 -1871 1231 -2657 139 -167 532 -560 699
-699 786 -652 1678 -1065 2657 -1231 359 -61 479 -69 948 -69 469 0 589 8 948
69 979 166 1871 579 2657 1231 167 139 560 532 699 699 652 786 1065 1678
1231 2657 61 359 69 479 69 948 0 469 -8 589 -69 948 -166 979 -579 1871
-1231 2657 -139 167 -532 560 -699 699 -786 652 -1678 1065 -2657 1231 -332
56 -476 67 -893 70 -214 1 -412 1 -440 -1z m885 -679 c1043 -113 1954 -504
2755 -1184 139 -118 440 -422 562 -567 552 -659 904 -1399 1071 -2249 46 -234
82 -620 82 -885 0 -167 -23 -502 -46 -670 -78 -568 -291 -1197 -576 -1700
-224 -395 -480 -731 -808 -1060 -268 -269 -486 -449 -779 -644 -1819 -1209
-4223 -1097 -5919 275 -297 242 -598 552 -833 859 -268 351 -487 733 -640
1120 -39 96 -76 191 -84 210 -40 98 -156 519 -181 660 -67 368 -88 592 -88
950 0 358 21 582 88 950 25 141 141 562 181 660 8 19 45 114 84 210 323 815
921 1579 1656 2119 771 566 1647 886 2630 961 163 13 676 4 845 -15z"/>
<path d="M5564 9562 c-19 -14 -52 -77 -70 -137 -27 -86 -27 -335 0 -420 38
-124 68 -157 131 -141 52 13 105 192 105 351 0 135 -40 294 -86 340 -16 16
-61 20 -80 7z"/>
<path d="M6583 8995 c-68 -29 -155 -218 -173 -371 -8 -72 -1 -166 15 -207 11
-27 53 -33 93 -11 112 60 213 417 157 551 -24 56 -38 62 -92 38z"/>
<path d="M4409 8908 c-19 -45 -16 -188 5 -268 28 -105 102 -247 144 -275 37
-25 76 -32 99 -17 7 4 17 32 24 61 30 141 -38 379 -139 489 -33 36 -45 42 -79
42 -36 0 -42 -3 -54 -32z"/>
<path d="M3402 8443 c-28 -5 -42 -39 -42 -98 0 -141 137 -357 270 -425 49 -25
120 -31 143 -11 80 66 -41 364 -192 475 -44 32 -130 69 -150 65 -3 -1 -16 -4
-29 -6z"/>
<path d="M7710 8435 c-72 -23 -158 -99 -218 -195 -85 -135 -115 -269 -73 -321
16 -19 28 -24 64 -22 56 2 108 28 175 88 58 52 135 173 163 254 22 62 25 160
7 183 -19 24 -67 29 -118 13z"/>
<path d="M7065 8018 c-27 -22 -63 -51 -79 -65 -16 -14 -115 -93 -220 -175
-105 -82 -203 -160 -217 -172 -14 -13 -68 -56 -120 -97 -151 -118 -333 -262
-348 -277 -7 -7 -48 -40 -92 -72 l-78 -60 -133 137 c-118 122 -281 291 -420
436 -46 48 -47 48 -59 25 -7 -13 -27 -50 -44 -83 -31 -58 -71 -132 -155 -290
-79 -148 -123 -231 -157 -295 -20 -36 -37 -67 -39 -69 -2 -2 -18 3 -36 12 -18
8 -71 32 -118 52 -47 21 -113 50 -148 66 -35 16 -65 29 -68 29 -2 0 -43 18
-90 40 -47 22 -87 40 -89 40 -2 0 -32 13 -67 29 -35 16 -121 55 -193 86 -71
32 -152 68 -180 80 -27 12 -84 37 -125 55 -41 18 -103 45 -138 61 -35 16 -65
29 -68 29 -2 0 -42 17 -88 39 -139 65 -144 64 -102 -11 12 -24 39 -72 58 -108
20 -36 47 -85 60 -110 66 -120 104 -190 203 -375 27 -49 57 -106 68 -125 11
-19 36 -66 57 -105 21 -38 49 -90 62 -115 14 -25 43 -79 65 -120 23 -41 55
-102 73 -135 77 -142 121 -227 118 -229 -2 -1 -48 -31 -103 -68 -55 -36 -215
-141 -355 -233 -140 -93 -257 -170 -259 -171 -6 -5 32 -37 159 -134 61 -47
158 -121 215 -165 57 -44 136 -105 176 -135 40 -30 86 -67 102 -81 l30 -26
-205 -344 c-113 -189 -214 -358 -225 -376 -27 -46 -116 -195 -128 -214 -5 -9
-28 -48 -50 -85 -22 -38 -54 -91 -72 -119 -37 -56 -42 -80 -15 -72 32 10 246
69 317 87 39 10 122 33 185 50 63 18 138 38 165 45 28 7 111 30 185 50 74 21
167 46 205 56 162 42 251 67 266 73 18 8 18 9 43 -269 4 -38 18 -176 31 -305
13 -129 27 -264 31 -300 3 -36 7 -78 9 -95 2 -16 6 -61 9 -100 16 -179 25
-245 36 -245 5 0 30 27 56 61 25 33 56 71 68 84 12 13 33 38 46 56 14 18 30
37 36 43 7 8 665 821 699 863 2 3 134 -85 455 -302 421 -284 542 -365 547
-365 2 0 2 46 -1 103 -7 113 -13 218 -21 382 -3 61 -8 146 -10 190 -3 44 -7
136 -10 205 -3 69 -8 163 -11 210 l-5 85 218 53 c120 28 314 75 431 103 l212
52 -27 46 c-14 25 -29 48 -32 51 -4 3 -29 41 -56 85 -27 44 -68 108 -90 142
-22 35 -71 113 -110 174 -38 61 -90 140 -114 177 l-43 66 33 30 c19 16 88 79
154 140 67 61 168 154 225 206 89 81 189 173 250 230 9 8 55 51 104 95 74 67
85 80 70 87 -17 6 -241 50 -324 63 -19 3 -107 19 -195 36 -88 17 -169 32 -180
33 -44 6 -415 75 -431 81 -7 2 -3 41 13 122 13 65 25 132 28 148 3 17 10 53
15 80 11 49 15 71 24 130 3 17 23 125 46 240 23 116 42 219 44 230 6 36 17 97
62 327 24 124 44 231 44 237 0 18 -12 12 -65 -31z m-389 -791 c-9 -45 -38
-199 -65 -342 -28 -143 -59 -309 -70 -370 -11 -60 -24 -132 -30 -160 -5 -27
-8 -52 -6 -54 2 -2 39 -10 82 -17 43 -8 173 -32 288 -54 116 -22 228 -42 249
-46 92 -14 228 -43 234 -49 4 -4 -9 -21 -28 -37 -19 -17 -84 -77 -144 -132
-60 -56 -117 -108 -126 -116 -9 -8 -62 -56 -116 -106 -54 -50 -116 -106 -137
-125 l-39 -34 191 -299 c105 -165 190 -301 188 -302 -2 -2 -373 -92 -621 -151
l-68 -16 7 -193 c4 -106 8 -206 10 -221 2 -15 6 -109 10 -208 4 -99 9 -183 11
-187 3 -4 0 -10 -6 -13 -9 -6 -188 111 -626 408 -57 38 -106 68 -108 66 -2 -2
-83 -103 -181 -224 -98 -121 -197 -242 -220 -270 -23 -27 -81 -99 -129 -158
-51 -63 -92 -105 -97 -100 -9 9 -22 104 -33 233 -7 90 -69 704 -71 708 -2 2
-339 -86 -505 -133 -52 -15 -126 -35 -165 -45 -38 -10 -121 -32 -184 -49 -72
-20 -118 -28 -124 -22 -6 6 20 58 71 143 322 538 394 660 390 662 -15 12 -286
219 -373 286 -155 118 -185 142 -185 151 0 3 57 44 128 90 70 45 204 134 299
197 l172 114 -46 86 c-25 48 -58 110 -73 137 -15 28 -98 181 -185 340 -86 160
-168 310 -181 334 -14 25 -21 48 -16 53 5 5 31 -1 58 -13 27 -12 246 -109 488
-216 241 -107 440 -193 441 -191 3 4 55 100 115 213 29 55 63 118 75 140 12
22 50 93 84 157 34 65 66 120 70 123 7 4 149 -140 408 -413 88 -93 92 -96 115
-83 21 13 141 108 612 483 113 90 172 132 174 122 2 -8 -3 -51 -12 -97z"/>
<path d="M8321 7374 c-115 -31 -218 -109 -259 -196 -40 -87 -27 -141 40 -159
77 -20 181 8 286 80 92 62 143 157 126 234 -11 53 -88 70 -193 41z"/>
<path d="M2735 7248 c-51 -27 -59 -83 -23 -156 39 -76 130 -141 247 -176 69
-20 120 -20 171 0 50 20 61 61 35 130 -33 86 -114 154 -232 193 -67 23 -165
27 -198 9z"/>
<path d="M2334 5869 c-79 -10 -157 -43 -189 -81 -19 -23 -25 -41 -25 -78 0
-61 29 -99 101 -130 143 -61 377 -28 442 62 25 33 26 98 3 133 -46 70 -189
111 -332 94z"/>
<path d="M8390 5809 c-38 -5 -90 -21 -126 -39 -55 -27 -65 -36 -80 -75 -16
-42 -16 -48 0 -90 15 -39 25 -48 79 -75 149 -73 398 -45 457 52 44 73 14 153
-73 193 -46 22 -70 27 -167 39 -14 1 -54 -1 -90 -5z"/>
<path d="M3071 4504 c-114 -30 -218 -110 -259 -197 -39 -82 -27 -137 34 -157
74 -25 203 12 302 84 125 93 162 248 65 275 -49 14 -76 13 -142 -5z"/>
<path d="M8196 4330 c-38 -12 -46 -25 -46 -83 0 -83 49 -149 160 -214 110 -66
290 -70 314 -8 29 75 -43 195 -151 253 -101 53 -206 73 -277 52z"/>
<path d="M3683 3401 c-176 -44 -371 -362 -314 -514 31 -80 209 -8 307 125 103
141 155 332 101 376 -19 16 -59 21 -94 13z"/>
<path d="M7443 3400 c-72 -29 -51 -178 47 -337 78 -127 185 -206 278 -206 57
0 72 19 72 93 0 145 -137 363 -269 429 -46 23 -100 32 -128 21z"/>
<path d="M6541 2946 c-26 -31 -35 -121 -22 -208 35 -217 130 -378 224 -378 31
0 37 4 46 33 21 64 22 114 6 207 -35 205 -130 360 -218 360 -13 0 -30 -6 -36
-14z"/>
<path d="M4684 2896 c-35 -15 -79 -81 -120 -178 -69 -165 -74 -393 -8 -418 34
-13 85 9 113 49 42 59 93 185 112 275 22 106 23 136 8 206 -17 78 -41 93 -105
66z"/>
<path d="M5551 2421 c-26 -26 -59 -118 -72 -204 -14 -91 -6 -274 17 -347 34
-112 70 -151 128 -136 52 13 106 192 106 351 0 142 -52 332 -95 349 -30 11
-65 6 -84 -13z"/>
</g>
</svg>
